<?xml version="1.0" standalone="no"?><!DOCTYPE svg PUBLIC "-//W3C//DTD SVG 1.1//EN"
    "http://www.w3.org/Graphics/SVG/1.1/DTD/svg11.dtd">
<svg t="1698398277414" class="icon" viewBox="0 0 1024 1024" version="1.1" xmlns="http://www.w3.org/2000/svg" p-id="4177"
    xmlns:xlink="http://www.w3.org/1999/xlink" width="200" height="200">
    <path
        d="M445.6 226.5c-41 0-74.6 33.6-74.6 74.6V326c0 13.3 10.9 24.1 24.1 24.1H496c13.3 0 24.1-10.9 24.1-24.1v-25c0.1-41-33.4-74.5-74.5-74.5z"
        fill="#D9DFFF" p-id="4178"></path>
    <path
        d="M496.1 373.1H395.2c-26 0-47.1-21.1-47.1-47.1v-25c0-53.8 43.8-97.6 97.6-97.6s97.6 43.8 97.6 97.6v24.9c-0.1 26-21.2 47.2-47.2 47.2z m-50.5-123.6c-28.4 0-51.6 23.1-51.6 51.6V326c0 0.6 0.6 1.1 1.1 1.1H496c0.6 0 1.1-0.6 1.1-1.1v-25c0.1-28.4-23-51.5-51.5-51.5zM865.9 647.3H160.1c-34.8 0-63.1-28.3-63.1-63.1s28.3-63.1 63.1-63.1h705.8c34.8 0 63.1 28.3 63.1 63.1s-28.3 63.1-63.1 63.1z m-705.8-80.1c-9.4 0-17.1 7.7-17.1 17.1 0 9.4 7.7 17.1 17.1 17.1h705.8c9.4 0 17.1-7.7 17.1-17.1 0-9.4-7.7-17.1-17.1-17.1H160.1zM452 453.7c-12.7 0-23-10.3-23-23v-24.4c0-12.7 10.3-23 23-23s23 10.3 23 23v24.4c0 12.7-10.3 23-23 23zM507.9 453.7c-12.7 0-23-10.3-23-23v-24.4c0-12.7 10.3-23 23-23s23 10.3 23 23v24.4c0 12.7-10.3 23-23 23zM396 453.7c-12.7 0-23-10.3-23-23v-24.4c0-12.7 10.3-23 23-23s23 10.3 23 23v24.4c0 12.7-10.3 23-23 23zM230.5 928.3c-5.9 0-11.8-2.2-16.3-6.7-9-9-9-23.5 0-32.5l42.5-42.5c9-9 23.5-9 32.5 0s9 23.5 0 32.5l-42.5 42.5c-4.4 4.5-10.3 6.7-16.2 6.7zM795.5 928.3c-5.9 0-11.8-2.2-16.3-6.7l-42.5-42.5c-9-9-9-23.5 0-32.5s23.5-9 32.5 0l42.5 42.5c9 9 9 23.5 0 32.5-4.5 4.5-10.3 6.7-16.2 6.7z"
        fill="#728BFF" p-id="4179"></path>
    <path
        d="M704.4 863.1H321.6c-82.5 0-150-67.5-150-150v-75.7c0-6.6 5.4-12 12-12h658.8c6.6 0 12 5.4 12 12v75.7c0 82.5-67.5 150-150 150z"
        fill="#D9DFFF" p-id="4180"></path>
    <path
        d="M704.4 886.1H321.6c-46 0-89.4-18-122.2-50.8s-50.8-76.2-50.8-122.2v-75.7c0-19.3 15.7-35 35-35h658.8c19.3 0 35 15.7 35 35v75.7c0 46-18 89.4-50.8 122.2-32.8 32.7-76.2 50.8-122.2 50.8zM194.6 648.3V713c0 70 57 127 127 127h382.8c70 0 127-57 127-127v-64.7H194.6zM233.1 562.8c-12.7 0-23-10.3-23-23v-315c0-70.9 57.6-128.5 128.5-128.5S467.1 154 467.1 224.9c0 12.7-10.3 23-23 23s-23-10.3-23-23c0-45.5-37-82.5-82.5-82.5s-82.5 37-82.5 82.5v315c0 12.6-10.3 22.9-23 22.9z"
        fill="#728BFF" p-id="4181"></path>
    <path
        d="M276.6 755.5c-2.9 0-5.9-0.8-8.5-2.6l-16.5-11.3c-6.8-4.7-8.6-14-3.9-20.8 4.7-6.8 14-8.6 20.8-3.9l16.5 11.3c6.8 4.7 8.6 14 3.9 20.8-2.8 4.3-7.5 6.5-12.3 6.5zM511.4 806.6c-34 0-64.2-2.7-88.8-6.1-64.2-8.9-104.6-24.3-106.3-24.9-7.7-3-11.6-11.6-8.6-19.4 3-7.7 11.6-11.6 19.4-8.6 0.7 0.3 39.8 15 100.6 23.3 56.1 7.7 142.8 11.4 237-14.6 8-2.2 16.2 2.5 18.4 10.5 2.2 8-2.5 16.2-10.5 18.4-58.1 16.1-113.5 21.4-161.2 21.4z"
        fill="#FFFFFF" p-id="4182"></path>
</svg>